<svg width="159" height="146" viewBox="0 0 159 146" fill="none" xmlns="http://www.w3.org/2000/svg">
<path d="M143.1 143.1C143.1 151.924 136.024 159 127.2 159C122.983 159 118.939 157.325 115.957 154.343C112.975 151.361 111.3 147.317 111.3 143.1C111.3 134.275 118.375 127.2 127.2 127.2C131.417 127.2 135.461 128.875 138.443 131.857C141.425 134.839 143.1 138.883 143.1 143.1ZM47.7 127.2C38.8755 127.2 31.8 134.275 31.8 143.1C31.8 147.317 33.4752 151.361 36.457 154.343C39.4388 157.325 43.4831 159 47.7 159C56.5245 159 63.6 151.924 63.6 143.1C63.6 134.275 56.5245 127.2 47.7 127.2ZM49.29 100.409L49.0515 101.362C49.0515 102.475 49.926 103.35 51.039 103.35H143.1V119.25H47.7C43.4831 119.25 39.4388 117.575 36.457 114.593C33.4752 111.611 31.8 107.567 31.8 103.35C31.8 100.567 32.5155 97.944 33.708 95.718L44.52 76.2405L15.9 15.9H0V0H25.9965L33.4695 15.9H151.05C155.423 15.9 159 19.4775 159 23.85C159 25.2015 158.602 26.553 158.046 27.825L129.585 79.2615C126.882 84.111 121.635 87.45 115.673 87.45H56.445L49.29 100.409ZM59.625 71.55H71.55V55.65H52.152L59.625 71.55ZM79.5 55.65V71.55H103.35V55.65H79.5ZM103.35 47.7V31.8H79.5V47.7H103.35ZM128.075 55.65H111.3V71.55H119.25L128.075 55.65ZM141.351 31.8H111.3V47.7H132.527L141.351 31.8ZM40.863 31.8L48.336 47.7H71.55V31.8H40.863Z" fill="#2F7298"/>
</svg>
