<svg width="139" height="138" viewBox="0 0 139 138" fill="none" xmlns="http://www.w3.org/2000/svg">
<path d="M23.8529 60.4374L19.8823 60.4374C12.3938 60.4374 8.65351 60.4374 6.32675 62.7642C3.99998 65.0909 3.99999 68.8312 3.99999 76.3197L3.99999 84.2609C3.99999 99.238 3.99999 106.719 8.65352 111.372C13.307 116.026 20.7876 116.026 35.7647 116.026L107.235 116.026C122.212 116.026 129.693 116.026 134.346 111.372C139 106.719 139 99.238 139 84.2609L139 68.3786C139 64.6383 139 62.7642 137.841 61.5968C136.673 60.4374 134.799 60.4374 131.059 60.4374L119.147 60.4374" stroke="#2F7298" stroke-width="8"/>
<path d="M115.177 10.3603L115.177 76.3197C115.177 83.8082 115.177 87.5485 112.85 89.8753C110.523 92.202 106.783 92.202 99.2942 92.202L43.7059 92.202C36.2174 92.202 32.4771 92.202 30.1503 89.8753C27.8236 87.5485 27.8236 83.8082 27.8236 76.3197L27.8236 10.3603C27.8236 7.8429 27.8236 6.58818 28.6495 5.9926C29.4753 5.39701 30.6665 5.79407 33.0489 6.58819L50.2653 12.3297C50.7015 12.5166 51.1658 12.6294 51.6392 12.6632C52.1118 12.6027 52.5708 12.4631 52.9971 12.2502L70.023 5.43672C70.4843 5.20151 70.985 5.05344 71.5 4.99995C72.0151 5.05344 72.5158 5.20151 72.9771 5.43672L90.003 12.2502C90.427 12.4617 90.8832 12.6012 91.353 12.6632C91.8292 12.6312 92.2964 12.5184 92.7348 12.3297L109.951 6.5882C112.334 5.79408 113.525 5.39701 114.351 5.9926C115.177 6.58819 115.177 7.84291 115.177 10.3603Z" stroke="#2F7298" stroke-width="8"/>
<path d="M91.353 60.4374L59.5883 60.4374M91.353 36.6138L51.6471 36.6138" stroke="#2F7298" stroke-width="8" stroke-linecap="round"/>
<path d="M27.8236 116.026L27.8236 119.202C27.8236 132.678 27.8236 139.42 32.0086 143.605C36.1936 147.79 42.9356 147.79 56.4118 147.79L86.5883 147.79C100.064 147.79 106.807 147.79 110.992 143.605C115.177 139.42 115.177 132.678 115.177 119.202L115.177 116.026" stroke="#2F7298" stroke-width="8"/>
</svg>
