<svg width="138" height="141" viewBox="0 0 138 141" fill="none" xmlns="http://www.w3.org/2000/svg">
<path d="M79 158C35.3176 158 0 122.682 0 79C0 35.3176 35.3176 0 79 0C122.682 0 158 35.3176 158 79C158 122.682 122.682 158 79 158ZM79 9.29412C40.4294 9.29412 9.29412 40.4294 9.29412 79C9.29412 117.571 40.4294 148.706 79 148.706C117.571 148.706 148.706 117.571 148.706 79C148.706 40.4294 117.571 9.29412 79 9.29412Z" fill="#2F7298"/>
<path d="M37.1765 74.3529H120.824V83.647H37.1765V74.3529Z" fill="#2F7298"/>
<path d="M74.3533 37.1766H83.6474V120.824H74.3533V37.1766Z" fill="#2F7298"/>
</svg>
