<svg width="287" height="214" viewBox="0 0 287 214" fill="none" xmlns="http://www.w3.org/2000/svg">
<path d="M51.7823 194.034C49.6736 195.003 48.036 196.77 47.2298 198.946C46.4237 201.122 46.515 203.529 47.4838 205.638L65.7468 245.394C67.6842 249.611 71.2178 252.886 75.57 254.499C79.9223 256.111 84.7367 255.928 88.9543 253.991L279.782 166.329C284 164.391 287.275 160.858 288.887 156.505C290.5 152.153 290.317 147.339 288.379 143.121L270.116 103.365C269.148 101.256 267.381 99.6188 265.205 98.8127C263.029 98.0065 260.621 98.0979 258.513 99.0666C254.295 101.004 249.481 101.187 245.128 99.5745C240.776 97.9622 237.243 94.687 235.305 90.4695C233.368 86.2519 233.185 81.4374 234.797 77.0852C236.409 72.7329 239.685 69.1994 243.902 67.2619C246.011 66.2932 247.649 64.5265 248.455 62.3503C249.261 60.1742 249.17 57.767 248.201 55.6582L229.938 15.9024C228 11.6848 224.467 8.40963 220.115 6.79736C215.762 5.18508 210.948 5.36776 206.73 7.30522L15.9023 94.9676C11.6848 96.9051 8.40958 100.439 6.79732 104.791C5.18504 109.143 5.36772 113.958 7.30518 118.175L25.5682 157.931C26.5369 160.04 28.3037 161.677 30.4798 162.483C32.6559 163.29 35.0632 163.198 37.1719 162.23C41.3895 160.292 46.204 160.109 50.5562 161.722C54.9085 163.334 58.442 166.609 60.3795 170.827C62.3169 175.044 62.4996 179.859 60.8873 184.211C59.2751 188.563 55.9999 192.097 51.7823 194.034ZM38.2927 143.708L23.2075 110.87L78.8657 85.3017L89.8235 109.155L105.726 101.85L94.768 77.9965L214.035 23.2076L229.121 56.0459C223.132 60.9514 218.938 67.7041 217.196 75.2471C215.454 82.7902 216.262 90.6979 219.494 97.7327C222.726 104.768 228.199 110.532 235.056 114.125C241.913 117.718 249.768 118.936 257.392 117.588L272.477 150.426L153.21 205.215L142.252 181.362L126.349 188.667L137.307 212.52L81.6491 238.089L66.5639 205.25C72.5528 200.345 76.7464 193.592 78.4883 186.049C80.2302 178.506 79.4221 170.598 76.1905 163.563C72.9588 156.529 67.486 150.764 60.6286 147.171C53.7712 143.578 45.9161 142.361 38.2927 143.708Z" fill="#033653"/>
<path d="M134.947 165.459L119.044 172.765L97.1287 125.058L113.031 117.752L134.947 165.459Z" fill="#033653"/>
</svg>
